<svg width="155" height="38" viewBox="0 0 155 38" fill="none" xmlns="http://www.w3.org/2000/svg">
    <g clip-path="url(#clip0_2075_16505)">
    <path d="M0.0927734 27.7226L5.63414 23.4775C8.57821 27.32 11.7061 29.0911 15.1878 29.0911C18.6509 29.0911 21.6904 27.3409 24.5018 23.5287L30.1223 27.6714C26.0658 33.1685 21.0248 36.073 15.1878 36.073C9.3695 36.073 4.27964 33.1871 0.0927734 27.7226Z" fill="url(#paint0_linear_2075_16505)"></path>
    <path d="M15.1695 9.27097L5.3063 17.7704L0.74707 12.4827L15.1905 0.0361328L29.5198 12.492L24.9396 17.7611L15.1695 9.27097Z" fill="url(#paint1_linear_2075_16505)"></path>
    <path d="M51.3728 30.8295C48.0052 30.8295 45.1984 29.738 42.9223 27.5549C40.6462 25.3416 39.5244 22.5046 39.5244 19.0416C39.5244 15.5506 40.6764 12.681 42.9526 10.4351C45.2613 8.15898 48.068 7.0372 51.4054 7.0372C55.5225 7.0372 59.1694 8.81295 61.2919 11.5895L57.5775 15.4877C55.7994 13.584 53.8654 12.6181 51.7778 12.6181C49.9997 12.6181 48.5335 13.2093 47.3163 14.4265C46.1317 15.6437 45.5406 17.1727 45.5406 19.0113C45.5406 20.7894 46.1317 22.2859 47.3163 23.503C48.5335 24.6877 49.9997 25.2788 51.7452 25.2788C54.0213 25.2788 56.0182 24.2804 57.6706 22.3161L61.5386 26.0282C60.4773 27.4316 59.0437 28.5859 57.2656 29.4889C55.4876 30.3943 53.5233 30.8295 51.3705 30.8295H51.3728ZM68.083 6.69276V30.4874H62.5952V6.69276H68.083ZM73.2846 11.7431C71.446 11.7431 70.1055 10.4025 70.1055 8.56393C70.1055 6.78585 71.5089 5.44531 73.2846 5.44531C75.0627 5.44531 76.4358 6.78585 76.4358 8.56393C76.4358 10.4025 75.0627 11.7454 73.2846 11.7454V11.7431ZM76.0611 13.2721V30.4874H70.5407V13.2721H76.0611ZM86.6272 30.8621C83.9135 30.8621 81.7305 30.0196 80.0176 28.3346C78.3326 26.6519 77.4901 24.4991 77.4901 21.8483C77.4901 19.1975 78.3326 17.047 80.0478 15.3621C81.7631 13.6771 83.9764 12.8369 86.7203 12.8369C90.3067 12.8369 93.4579 14.5824 94.9218 17.8569L90.5255 20.1657C89.6527 18.6994 88.4355 17.95 86.846 17.95C85.6916 17.95 84.756 18.3247 84.0066 19.0741C83.6511 19.442 83.3716 19.8764 83.1843 20.3524C82.997 20.8285 82.9055 21.3368 82.9151 21.8483C82.9151 24.1244 84.5675 25.8094 86.7831 25.8094C88.3727 25.8094 89.8389 24.9367 90.4626 23.5961L94.8613 26.2144C93.3625 29.084 90.2764 30.8621 86.6272 30.8621ZM114.004 30.4874H107.452L102.367 23.6566L101.557 24.406V30.4874H96.0715V6.69276H101.559V18.2619L106.735 13.2721H113.44L106.051 20.1959L114.004 30.4874ZM114.371 21.5365V7.43983H120.234V21.4434C120.234 24.0313 121.73 25.2788 123.883 25.2788C126.003 25.2788 127.5 23.9685 127.5 21.4434V7.43983H133.395V21.5365C133.395 28.3346 128.684 30.8923 123.883 30.8923C119.112 30.8923 114.371 28.3346 114.371 21.5365ZM146.423 12.8369C148.888 12.8369 150.885 13.7097 152.474 15.4551C154.064 17.1704 154.843 19.3232 154.843 21.8483C154.843 24.3758 154.034 26.5262 152.444 28.3043C150.852 30.0498 148.858 30.9249 146.456 30.9249C144.552 30.9249 142.9 30.3012 141.559 29.0537V37.5671H136.039V13.2721H141.466V14.864C142.807 13.5211 144.459 12.8369 146.423 12.8369ZM149.23 21.9112C149.23 19.6653 147.61 17.95 145.364 17.95C143.118 17.95 141.466 19.6653 141.466 21.9112C141.466 23.0027 141.838 23.9383 142.558 24.7179C143.305 25.4976 144.24 25.8723 145.364 25.8723C146.486 25.8723 147.422 25.4976 148.138 24.7179C148.854 23.9598 149.246 22.9533 149.232 21.9112H149.23Z" fill="#111111"></path>
    </g>
    <defs>
    <linearGradient id="paint0_linear_2075_16505" x1="0.0927734" y1="32.0437" x2="30.1223" y2="32.0437" gradientUnits="userSpaceOnUse">
        <stop stop-color="#8930FD"></stop>
        <stop offset="1" stop-color="#49CCF9"></stop>
    </linearGradient>
    <linearGradient id="paint1_linear_2075_16505" x1="0.74707" y1="12.0972" x2="29.5198" y2="12.0972" gradientUnits="userSpaceOnUse">
        <stop stop-color="#FF02F0"></stop>
        <stop offset="1" stop-color="#FFC800"></stop>
    </linearGradient>
    <clipPath id="clip0_2075_16505">
        <rect width="155" height="37.7027" fill="white"></rect>
    </clipPath>
    </defs>
</svg>